# xmcd
# Track frame offsets:
# 150
# 17792
# 34365
# 52281
# 68441
# 84338
# 103801
# 119728
# 140971
# 154975
# 170357
# 183834
# 201523
# 215183
# 231158
# 247545
#
# Disc length: 3512 seconds
# Revision: 0
# Processed by: cddbd v1.5PL3 Copyright (c) Steve Scherf et al.
# Submitted via: VisiTrax 2.9.9.209 - For more info visit www.synapsa.com
#
DISCID=ef0db610
DTITLE=Various Artist - The Very Best Of Country Love-Disc 2
DYEAR=2003
DGENRE=Country
TTITLE0=John Michael Montgomery - I Can love You LIke That
TTITLE1=Randy Travis - I Told You So
TTITLE2=Little Texas - What Might Have Been
TTITLE3=Travis Tritt - Can I Trust You With My Heart
TTITLE4=Johnny Lee - Lookin' For Love
TTITLE5=Lila McCann - I Wanna Fall In Love
TTITLE6=Clay Walker - Dreaming With My Eyes Wide Open
TTITLE7=Gary Morris - The Wind Beneath My Wings
TTITLE8=Tracy Lawrence - Alibis
TTITLE9=Chad Brock - Yes!
TTITLE10=Daryle Singletary - I Let Her Lie
TTITLE11=Eddie Rabbitt and Crystal Gail - You And I
TTITLE12=David Ball - When The Thought Of You Catches Up With Me
TTITLE13=Conway Twitty - The Rose
TTITLE14=Michael Peterson - From Here To Eternity
TTITLE15=The Nitty Gritty Dirt Band - Modern Day Romance
EXTD=
EXTT0=
EXTT1=
EXTT2=
EXTT3=
EXTT4=
EXTT5=
EXTT6=
EXTT7=
EXTT8=
EXTT9=
EXTT10=
EXTT11=
EXTT12=
EXTT13=
EXTT14=
EXTT15=
PLAYORDER=
